<svg width="80" height="80" viewBox="0 0 80 80" fill="none" xmlns="http://www.w3.org/2000/svg">
<path d="M1.75733 69.7574C-0.585816 72.1005 -0.585817 75.8995 1.75733 78.2426C4.10047 80.5858 7.89946 80.5858 10.2426 78.2426L1.75733 69.7574ZM79.5 6.50002C79.5 3.18631 76.8137 0.500019 73.5 0.500018L19.5 0.500012C16.1863 0.500011 13.5 3.1863 13.5 6.50001C13.5 9.81372 16.1863 12.5 19.5 12.5L67.5 12.5L67.5 60.5C67.5 63.8137 70.1863 66.5 73.5 66.5C76.8137 66.5 79.5 63.8137 79.5 60.5L79.5 6.50002ZM10.2426 78.2426L77.7426 10.7427L69.2573 2.25738L1.75733 69.7574L10.2426 78.2426Z" fill="#3300FF" fill-opacity="0.5"/>
</svg>
